%TF.GenerationSoftware,KiCad,Pcbnew,9.0.7*%
%TF.CreationDate,2026-10-02T16:32:39+09:00*%
%TF.ProjectId,stp-motr-2ch-100x50,7374702d-6d6f-4747-922d-3263682d3130,D*%
%TF.SameCoordinates,Original*%
%TF.FileFunction,Soldermask,Top*%
%TF.FilePolarity,Negative*%
%FSLAX46Y46*%
G04 Gerber Fmt 4.6, Leading zero omitted, Abs format (unit mm)*
G04 Created by KiCad (PCBNEW 9.0.7) date 2026-10-02 16:32:39*
%MOMM*%
%LPD*%
G01*
G04 APERTURE LIST*
G04 Aperture macros list*
%AMRoundRect*
0 Rectangle with rounded corners*
0 $1 Rounding radius*
0 $2 $3 $4 $5 $6 $7 $8 $9 X,Y pos of 4 corners*
0 Add a 4 corners polygon primitive as box body*
4,1,4,$2,$3,$4,$5,$6,$7,$8,$9,$2,$3,0*
0 Add four circle primitives for the rounded corners*
1,1,$1+$1,$2,$3*
1,1,$1+$1,$4,$5*
1,1,$1+$1,$6,$7*
1,1,$1+$1,$8,$9*
0 Add four rect primitives between the rounded corners*
20,1,$1+$1,$2,$3,$4,$5,0*
20,1,$1+$1,$4,$5,$6,$7,0*
20,1,$1+$1,$6,$7,$8,$9,0*
20,1,$1+$1,$8,$9,$2,$3,0*%
G04 Aperture macros list end*
%ADD10R,1.700000X1.700000*%
%ADD11C,1.700000*%
%ADD12R,1.200000X1.200000*%
%ADD13C,1.200000*%
%ADD14RoundRect,0.250000X-0.600000X-0.725000X0.600000X-0.725000X0.600000X0.725000X-0.600000X0.725000X0*%
%ADD15O,1.700000X1.950000*%
%ADD16R,2.400000X2.400000*%
%ADD17C,2.400000*%
%ADD18C,3.200000*%
G04 APERTURE END LIST*
D10*
%TO.C,U1A*%
X29950000Y-31500000D03*
D11*
X29950000Y-34040000D03*
X29950000Y-36580000D03*
X29950000Y-39120000D03*
X29950000Y-41660000D03*
X29950000Y-44200000D03*
X29950000Y-46740000D03*
X29950000Y-49280000D03*
X29950000Y-51820000D03*
X29950000Y-54360000D03*
X29950000Y-56900000D03*
X29950000Y-59440000D03*
%TD*%
D10*
%TO.C,U1B*%
X45190000Y-31500000D03*
D11*
X45190000Y-34040000D03*
X45190000Y-36580000D03*
X45190000Y-39120000D03*
X45190000Y-41660000D03*
X45190000Y-44200000D03*
X45190000Y-46740000D03*
X45190000Y-49280000D03*
X45190000Y-51820000D03*
X45190000Y-54360000D03*
X45190000Y-56900000D03*
X45190000Y-59440000D03*
%TD*%
D10*
%TO.C,U3A*%
X55190000Y-34500000D03*
D11*
X55190000Y-37040000D03*
X55190000Y-39580000D03*
X55190000Y-42120000D03*
X55190000Y-44660000D03*
X55190000Y-47200000D03*
X55190000Y-49740000D03*
X55190000Y-52280000D03*
%TD*%
D10*
%TO.C,U3B*%
X70430000Y-34500000D03*
D11*
X70430000Y-37040000D03*
X70430000Y-39580000D03*
X70430000Y-42120000D03*
X70430000Y-44660000D03*
X70430000Y-47200000D03*
X70430000Y-49740000D03*
X70430000Y-52280000D03*
%TD*%
D12*
%TO.C,C1*%
X62940000Y-55500000D03*
D13*
X65440000Y-55500000D03*
%TD*%
D12*
%TO.C,C2*%
X62940000Y-47500000D03*
D13*
X65440000Y-47500000D03*
%TD*%
D14*
%TO.C,J1*%
X53190000Y-63500000D03*
D15*
X55690000Y-63500000D03*
X58190000Y-63500000D03*
X60690000Y-63500000D03*
%TD*%
D10*
%TO.C,U2A*%
X104710000Y-31500000D03*
D11*
X104710000Y-34040000D03*
X104710000Y-36580000D03*
X104710000Y-39120000D03*
X104710000Y-41660000D03*
X104710000Y-44200000D03*
X104710000Y-46740000D03*
X104710000Y-49280000D03*
X104710000Y-51820000D03*
X104710000Y-54360000D03*
X104710000Y-56900000D03*
X104710000Y-59440000D03*
%TD*%
D10*
%TO.C,U2B*%
X119950000Y-31500000D03*
D11*
X119950000Y-34040000D03*
X119950000Y-36580000D03*
X119950000Y-39120000D03*
X119950000Y-41660000D03*
X119950000Y-44200000D03*
X119950000Y-46740000D03*
X119950000Y-49280000D03*
X119950000Y-51820000D03*
X119950000Y-54360000D03*
X119950000Y-56900000D03*
X119950000Y-59440000D03*
%TD*%
D10*
%TO.C,U4A*%
X79470000Y-34500000D03*
D11*
X79470000Y-37040000D03*
X79470000Y-39580000D03*
X79470000Y-42120000D03*
X79470000Y-44660000D03*
X79470000Y-47200000D03*
X79470000Y-49740000D03*
X79470000Y-52280000D03*
%TD*%
D10*
%TO.C,U4B*%
X94710000Y-34500000D03*
D11*
X94710000Y-37040000D03*
X94710000Y-39580000D03*
X94710000Y-42120000D03*
X94710000Y-44660000D03*
X94710000Y-47200000D03*
X94710000Y-49740000D03*
X94710000Y-52280000D03*
%TD*%
D12*
%TO.C,C3*%
X87220000Y-55500000D03*
D13*
X89720000Y-55500000D03*
%TD*%
D12*
%TO.C,C4*%
X87220000Y-47500000D03*
D13*
X89720000Y-47500000D03*
%TD*%
D14*
%TO.C,J2*%
X81470000Y-63500000D03*
D15*
X83970000Y-63500000D03*
X86470000Y-63500000D03*
X88970000Y-63500000D03*
%TD*%
D14*
%TO.C,J3*%
X73700000Y-70500000D03*
D15*
X76200000Y-70500000D03*
%TD*%
D16*
%TO.C,J4*%
X37950000Y-69500000D03*
D17*
X43030000Y-69500000D03*
%TD*%
D18*
%TO.C,MH1*%
X55190000Y-29000000D03*
%TD*%
%TO.C,MH2*%
X94710000Y-29000000D03*
%TD*%
%TO.C,MH3*%
X27950000Y-72500000D03*
%TD*%
%TO.C,MH4*%
X121950000Y-72500000D03*
%TD*%
M02*
