%TF.GenerationSoftware,KiCad,Pcbnew,9.0.7*%
%TF.CreationDate,2026-10-02T16:32:39+09:00*%
%TF.ProjectId,stp-motr-2ch-100x50,7374702d-6d6f-4747-922d-3263682d3130,D*%
%TF.SameCoordinates,Original*%
%TF.FileFunction,Copper,L1,Top*%
%TF.FilePolarity,Positive*%
%FSLAX46Y46*%
G04 Gerber Fmt 4.6, Leading zero omitted, Abs format (unit mm)*
G04 Created by KiCad (PCBNEW 9.0.7) date 2026-10-02 16:32:39*
%MOMM*%
%LPD*%
G01*
G04 APERTURE LIST*
G04 Aperture macros list*
%AMRoundRect*
0 Rectangle with rounded corners*
0 $1 Rounding radius*
0 $2 $3 $4 $5 $6 $7 $8 $9 X,Y pos of 4 corners*
0 Add a 4 corners polygon primitive as box body*
4,1,4,$2,$3,$4,$5,$6,$7,$8,$9,$2,$3,0*
0 Add four circle primitives for the rounded corners*
1,1,$1+$1,$2,$3*
1,1,$1+$1,$4,$5*
1,1,$1+$1,$6,$7*
1,1,$1+$1,$8,$9*
0 Add four rect primitives between the rounded corners*
20,1,$1+$1,$2,$3,$4,$5,0*
20,1,$1+$1,$4,$5,$6,$7,0*
20,1,$1+$1,$6,$7,$8,$9,0*
20,1,$1+$1,$8,$9,$2,$3,0*%
G04 Aperture macros list end*
%TA.AperFunction,ComponentPad*%
%ADD10R,1.700000X1.700000*%
%TD*%
%TA.AperFunction,ComponentPad*%
%ADD11C,1.700000*%
%TD*%
%TA.AperFunction,ComponentPad*%
%ADD12R,1.200000X1.200000*%
%TD*%
%TA.AperFunction,ComponentPad*%
%ADD13C,1.200000*%
%TD*%
%TA.AperFunction,ComponentPad*%
%ADD14RoundRect,0.250000X-0.600000X-0.725000X0.600000X-0.725000X0.600000X0.725000X-0.600000X0.725000X0*%
%TD*%
%TA.AperFunction,ComponentPad*%
%ADD15O,1.700000X1.950000*%
%TD*%
%TA.AperFunction,ComponentPad*%
%ADD16R,2.400000X2.400000*%
%TD*%
%TA.AperFunction,ComponentPad*%
%ADD17C,2.400000*%
%TD*%
%TA.AperFunction,ViaPad*%
%ADD18C,0.600000*%
%TD*%
%TA.AperFunction,Conductor*%
%ADD19C,0.300000*%
%TD*%
%TA.AperFunction,Conductor*%
%ADD20C,2.000000*%
%TD*%
G04 APERTURE END LIST*
D10*
%TO.P,U1A,1*%
%TO.N,N/C*%
X29950000Y-31500000D03*
D11*
%TO.P,U1A,2*%
X29950000Y-34040000D03*
%TO.P,U1A,3*%
%TO.N,GND*%
X29950000Y-36580000D03*
%TO.P,U1A,4*%
X29950000Y-39120000D03*
%TO.P,U1A,5*%
%TO.N,N/C*%
X29950000Y-41660000D03*
%TO.P,U1A,6*%
X29950000Y-44200000D03*
%TO.P,U1A,7*%
%TO.N,S1_STEP*%
X29950000Y-46740000D03*
%TO.P,U1A,8*%
%TO.N,S1_DIR*%
X29950000Y-49280000D03*
%TO.P,U1A,9*%
%TO.N,S1_EN*%
X29950000Y-51820000D03*
%TO.P,U1A,10*%
%TO.N,N/C*%
X29950000Y-54360000D03*
%TO.P,U1A,11*%
X29950000Y-56900000D03*
%TO.P,U1A,12*%
X29950000Y-59440000D03*
%TD*%
D10*
%TO.P,U1B,1*%
%TO.N,N/C*%
X45190000Y-31500000D03*
D11*
%TO.P,U1B,2*%
%TO.N,GND*%
X45190000Y-34040000D03*
%TO.P,U1B,3*%
%TO.N,N/C*%
X45190000Y-36580000D03*
%TO.P,U1B,4*%
%TO.N,B1_VCC*%
X45190000Y-39120000D03*
%TO.P,U1B,5*%
%TO.N,N/C*%
X45190000Y-41660000D03*
%TO.P,U1B,6*%
%TO.N,S1_MS3*%
X45190000Y-44200000D03*
%TO.P,U1B,7*%
%TO.N,S1_MS2*%
X45190000Y-46740000D03*
%TO.P,U1B,8*%
%TO.N,S1_MS1*%
X45190000Y-49280000D03*
%TO.P,U1B,9*%
%TO.N,N/C*%
X45190000Y-51820000D03*
%TO.P,U1B,10*%
X45190000Y-54360000D03*
%TO.P,U1B,11*%
X45190000Y-56900000D03*
%TO.P,U1B,12*%
X45190000Y-59440000D03*
%TD*%
D10*
%TO.P,U3A,1*%
%TO.N,S1_EN*%
X55190000Y-34500000D03*
D11*
%TO.P,U3A,2*%
%TO.N,S1_MS1*%
X55190000Y-37040000D03*
%TO.P,U3A,3*%
%TO.N,S1_MS2*%
X55190000Y-39580000D03*
%TO.P,U3A,4*%
%TO.N,S1_MS3*%
X55190000Y-42120000D03*
%TO.P,U3A,5*%
%TO.N,S1_RST_SLP*%
X55190000Y-44660000D03*
%TO.P,U3A,6*%
X55190000Y-47200000D03*
%TO.P,U3A,7*%
%TO.N,S1_STEP*%
X55190000Y-49740000D03*
%TO.P,U3A,8*%
%TO.N,S1_DIR*%
X55190000Y-52280000D03*
%TD*%
D10*
%TO.P,U3B,1*%
%TO.N,+12V*%
X70430000Y-34500000D03*
D11*
%TO.P,U3B,2*%
%TO.N,GND*%
X70430000Y-37040000D03*
%TO.P,U3B,3*%
%TO.N,M1_2B*%
X70430000Y-39580000D03*
%TO.P,U3B,4*%
%TO.N,M1_2A*%
X70430000Y-42120000D03*
%TO.P,U3B,5*%
%TO.N,M1_1A*%
X70430000Y-44660000D03*
%TO.P,U3B,6*%
%TO.N,M1_1B*%
X70430000Y-47200000D03*
%TO.P,U3B,7*%
%TO.N,B1_VCC*%
X70430000Y-49740000D03*
%TO.P,U3B,8*%
%TO.N,GND*%
X70430000Y-52280000D03*
%TD*%
D12*
%TO.P,C1,1*%
%TO.N,+12V*%
X62940000Y-55500000D03*
D13*
%TO.P,C1,2*%
%TO.N,GND*%
X65440000Y-55500000D03*
%TD*%
D12*
%TO.P,C2,1*%
%TO.N,+12V*%
X62940000Y-47500000D03*
D13*
%TO.P,C2,2*%
%TO.N,GND*%
X65440000Y-47500000D03*
%TD*%
D14*
%TO.P,J1,1*%
%TO.N,M1_2B*%
X53190000Y-63500000D03*
D15*
%TO.P,J1,2*%
%TO.N,M1_2A*%
X55690000Y-63500000D03*
%TO.P,J1,3*%
%TO.N,M1_1A*%
X58190000Y-63500000D03*
%TO.P,J1,4*%
%TO.N,M1_1B*%
X60690000Y-63500000D03*
%TD*%
D10*
%TO.P,U2A,1*%
%TO.N,N/C*%
X104710000Y-31500000D03*
D11*
%TO.P,U2A,2*%
X104710000Y-34040000D03*
%TO.P,U2A,3*%
%TO.N,GND*%
X104710000Y-36580000D03*
%TO.P,U2A,4*%
X104710000Y-39120000D03*
%TO.P,U2A,5*%
%TO.N,N/C*%
X104710000Y-41660000D03*
%TO.P,U2A,6*%
X104710000Y-44200000D03*
%TO.P,U2A,7*%
%TO.N,S2_STEP*%
X104710000Y-46740000D03*
%TO.P,U2A,8*%
%TO.N,S2_DIR*%
X104710000Y-49280000D03*
%TO.P,U2A,9*%
%TO.N,S2_EN*%
X104710000Y-51820000D03*
%TO.P,U2A,10*%
%TO.N,N/C*%
X104710000Y-54360000D03*
%TO.P,U2A,11*%
X104710000Y-56900000D03*
%TO.P,U2A,12*%
X104710000Y-59440000D03*
%TD*%
D10*
%TO.P,U2B,1*%
%TO.N,N/C*%
X119950000Y-31500000D03*
D11*
%TO.P,U2B,2*%
%TO.N,GND*%
X119950000Y-34040000D03*
%TO.P,U2B,3*%
%TO.N,N/C*%
X119950000Y-36580000D03*
%TO.P,U2B,4*%
%TO.N,B2_VCC*%
X119950000Y-39120000D03*
%TO.P,U2B,5*%
%TO.N,N/C*%
X119950000Y-41660000D03*
%TO.P,U2B,6*%
%TO.N,S2_MS3*%
X119950000Y-44200000D03*
%TO.P,U2B,7*%
%TO.N,S2_MS2*%
X119950000Y-46740000D03*
%TO.P,U2B,8*%
%TO.N,S2_MS1*%
X119950000Y-49280000D03*
%TO.P,U2B,9*%
%TO.N,N/C*%
X119950000Y-51820000D03*
%TO.P,U2B,10*%
X119950000Y-54360000D03*
%TO.P,U2B,11*%
X119950000Y-56900000D03*
%TO.P,U2B,12*%
X119950000Y-59440000D03*
%TD*%
D10*
%TO.P,U4A,1*%
%TO.N,S2_EN*%
X79470000Y-34500000D03*
D11*
%TO.P,U4A,2*%
%TO.N,S2_MS1*%
X79470000Y-37040000D03*
%TO.P,U4A,3*%
%TO.N,S2_MS2*%
X79470000Y-39580000D03*
%TO.P,U4A,4*%
%TO.N,S2_MS3*%
X79470000Y-42120000D03*
%TO.P,U4A,5*%
%TO.N,S2_RST_SLP*%
X79470000Y-44660000D03*
%TO.P,U4A,6*%
X79470000Y-47200000D03*
%TO.P,U4A,7*%
%TO.N,S2_STEP*%
X79470000Y-49740000D03*
%TO.P,U4A,8*%
%TO.N,S2_DIR*%
X79470000Y-52280000D03*
%TD*%
D10*
%TO.P,U4B,1*%
%TO.N,+12V*%
X94710000Y-34500000D03*
D11*
%TO.P,U4B,2*%
%TO.N,GND*%
X94710000Y-37040000D03*
%TO.P,U4B,3*%
%TO.N,M2_2B*%
X94710000Y-39580000D03*
%TO.P,U4B,4*%
%TO.N,M2_2A*%
X94710000Y-42120000D03*
%TO.P,U4B,5*%
%TO.N,M2_1A*%
X94710000Y-44660000D03*
%TO.P,U4B,6*%
%TO.N,M2_1B*%
X94710000Y-47200000D03*
%TO.P,U4B,7*%
%TO.N,B2_VCC*%
X94710000Y-49740000D03*
%TO.P,U4B,8*%
%TO.N,GND*%
X94710000Y-52280000D03*
%TD*%
D12*
%TO.P,C3,1*%
%TO.N,+12V*%
X87220000Y-55500000D03*
D13*
%TO.P,C3,2*%
%TO.N,GND*%
X89720000Y-55500000D03*
%TD*%
D12*
%TO.P,C4,1*%
%TO.N,+12V*%
X87220000Y-47500000D03*
D13*
%TO.P,C4,2*%
%TO.N,GND*%
X89720000Y-47500000D03*
%TD*%
D14*
%TO.P,J2,1*%
%TO.N,M2_2B*%
X81470000Y-63500000D03*
D15*
%TO.P,J2,2*%
%TO.N,M2_2A*%
X83970000Y-63500000D03*
%TO.P,J2,3*%
%TO.N,M2_1A*%
X86470000Y-63500000D03*
%TO.P,J2,4*%
%TO.N,M2_1B*%
X88970000Y-63500000D03*
%TD*%
D14*
%TO.P,J3,1*%
%TO.N,+12V*%
X73700000Y-70500000D03*
D15*
%TO.P,J3,2*%
%TO.N,GND*%
X76200000Y-70500000D03*
%TD*%
D16*
%TO.P,J4,1*%
%TO.N,+12V*%
X37950000Y-69500000D03*
D17*
%TO.P,J4,2*%
%TO.N,GND*%
X43030000Y-69500000D03*
%TD*%
D18*
%TO.N,S2_DIR*%
X79370000Y-57241000D03*
%TO.N,S2_EN*%
X95662000Y-48379000D03*
%TO.N,S2_MS1*%
X106460000Y-33524000D03*
%TD*%
D19*
%TO.N,GND*%
X29950000Y-36580000D02*
X29950000Y-39120000D01*
D20*
%TO.N,+12V*%
X62940000Y-53668000D02*
X62940000Y-55500000D01*
X62940000Y-47500000D02*
X62940000Y-53668000D01*
X62940000Y-53668000D02*
X66852000Y-53668000D01*
X66852000Y-53668000D02*
X68685000Y-55500000D01*
X68685000Y-55500000D02*
X87220000Y-55500000D01*
X73700000Y-70500000D02*
X71648000Y-70500000D01*
X37950000Y-69500000D02*
X40352000Y-69500000D01*
X40352000Y-69500000D02*
X40352000Y-70250000D01*
X40352000Y-70250000D02*
X42050000Y-71949000D01*
X42050000Y-71949000D02*
X70199000Y-71949000D01*
X70199000Y-71949000D02*
X71648000Y-70500000D01*
D19*
%TO.N,B1_VCC*%
X45190000Y-39120000D02*
X46920000Y-40850000D01*
X46920000Y-40850000D02*
X61540000Y-40850000D01*
X61540000Y-40850000D02*
X70430000Y-49740000D01*
D20*
%TO.N,GND*%
X31505000Y-36090000D02*
X30440000Y-36090000D01*
X30440000Y-36090000D02*
X29950000Y-36580000D01*
X45190000Y-34040000D02*
X33556000Y-34040000D01*
X33556000Y-34040000D02*
X31505000Y-36090000D01*
X47242000Y-33550000D02*
X45680000Y-33550000D01*
X45680000Y-33550000D02*
X45190000Y-34040000D01*
X70430000Y-37040000D02*
X61130000Y-37040000D01*
X61130000Y-37040000D02*
X56538000Y-32448000D01*
X56538000Y-32448000D02*
X48344000Y-32448000D01*
X48344000Y-32448000D02*
X47242000Y-33550000D01*
X119950000Y-34040000D02*
X109932000Y-34040000D01*
X109932000Y-34040000D02*
X107392000Y-36580000D01*
X107392000Y-36580000D02*
X104710000Y-36580000D01*
X94710000Y-52280000D02*
X91490000Y-55500000D01*
X91490000Y-55500000D02*
X89720000Y-55500000D01*
X94710000Y-37040000D02*
X95170000Y-36580000D01*
X95170000Y-36580000D02*
X104710000Y-36580000D01*
X68875000Y-51790000D02*
X69940000Y-51790000D01*
X69940000Y-51790000D02*
X70430000Y-52280000D01*
X65440000Y-47500000D02*
X65440000Y-48356000D01*
X65440000Y-48356000D02*
X68875000Y-51790000D01*
D19*
%TO.N,S1_DIR*%
X55190000Y-52280000D02*
X54431000Y-53039000D01*
X54431000Y-53039000D02*
X33709000Y-53039000D01*
X33709000Y-53039000D02*
X29950000Y-49280000D01*
%TO.N,S1_MS3*%
X55190000Y-42120000D02*
X47270000Y-42120000D01*
X47270000Y-42120000D02*
X45190000Y-44200000D01*
%TO.N,S1_STEP*%
X55190000Y-49740000D02*
X54431000Y-50499000D01*
X54431000Y-50499000D02*
X33709000Y-50499000D01*
X33709000Y-50499000D02*
X29950000Y-46740000D01*
%TO.N,S2_DIR*%
X79370000Y-57241000D02*
X99929000Y-57241000D01*
X99929000Y-57241000D02*
X104080000Y-53090000D01*
X104080000Y-53090000D02*
X105142000Y-53090000D01*
X105142000Y-53090000D02*
X105936000Y-52296000D01*
X105936000Y-52296000D02*
X105936000Y-50506000D01*
X105936000Y-50506000D02*
X104710000Y-49280000D01*
%TO.N,S2_EN*%
X104710000Y-51820000D02*
X99103000Y-51820000D01*
X99103000Y-51820000D02*
X95662000Y-48379000D01*
%TO.N,S2_MS1*%
X79470000Y-37040000D02*
X86212000Y-30298000D01*
X86212000Y-30298000D02*
X91000000Y-30298000D01*
X91000000Y-30298000D02*
X91000000Y-31800000D01*
X91000000Y-31800000D02*
X98500000Y-31800000D01*
X98500000Y-31800000D02*
X98500000Y-30298000D01*
X98500000Y-30298000D02*
X105744000Y-30298000D01*
X105744000Y-30298000D02*
X106460000Y-31014000D01*
X106460000Y-31014000D02*
X106460000Y-33524000D01*
%TO.N,S2_MS2*%
X119950000Y-46740000D02*
X121183000Y-45507000D01*
X121183000Y-45507000D02*
X121183000Y-41138000D01*
X121183000Y-41138000D02*
X120437000Y-40392000D01*
X120437000Y-40392000D02*
X99688000Y-40392000D01*
X99688000Y-40392000D02*
X99298000Y-40782000D01*
X99298000Y-40782000D02*
X80672000Y-40782000D01*
X80672000Y-40782000D02*
X79470000Y-39580000D01*
%TO.N,S2_MS3*%
X79470000Y-42120000D02*
X80693000Y-43343000D01*
X80693000Y-43343000D02*
X99481000Y-43343000D01*
X99481000Y-43343000D02*
X99842000Y-42982000D01*
X99842000Y-42982000D02*
X118732000Y-42982000D01*
X118732000Y-42982000D02*
X119950000Y-44200000D01*
%TO.N,S2_STEP*%
X79470000Y-49740000D02*
X83238000Y-45972000D01*
X83238000Y-45972000D02*
X103942000Y-45972000D01*
X103942000Y-45972000D02*
X104710000Y-46740000D01*
%TD*%
M02*
