M48
; DRILL file {KiCad 9.0.7} date 2026-10-02T16:32:39+0900
; FORMAT={-:-/ absolute / metric / decimal}
; #@! TF.CreationDate,2026-10-02T16:32:39+09:00
; #@! TF.GenerationSoftware,Kicad,Pcbnew,9.0.7
; #@! TF.FileFunction,Plated,1,2,PTH
FMAT,2
METRIC
; #@! TA.AperFunction,Plated,PTH,ViaDrill
T1C0.300
; #@! TA.AperFunction,Plated,PTH,ComponentDrill
T2C0.500
; #@! TA.AperFunction,Plated,PTH,ComponentDrill
T3C0.600
; #@! TA.AperFunction,Plated,PTH,ComponentDrill
T4C0.950
; #@! TA.AperFunction,Plated,PTH,ComponentDrill
T5C1.000
; #@! TA.AperFunction,Plated,PTH,ComponentDrill
T6C1.300
%
G90
G05
T1
X79.37Y-57.241
X95.662Y-48.379
X106.46Y-33.524
T2
X62.94Y-47.5
X65.44Y-47.5
X87.22Y-47.5
X89.72Y-47.5
T3
X62.94Y-55.5
X65.44Y-55.5
X87.22Y-55.5
X89.72Y-55.5
T4
X53.19Y-63.5
X55.69Y-63.5
X58.19Y-63.5
X60.69Y-63.5
X73.7Y-70.5
X76.2Y-70.5
X81.47Y-63.5
X83.97Y-63.5
X86.47Y-63.5
X88.97Y-63.5
T5
X29.95Y-31.5
X29.95Y-34.04
X29.95Y-36.58
X29.95Y-39.12
X29.95Y-41.66
X29.95Y-44.2
X29.95Y-46.74
X29.95Y-49.28
X29.95Y-51.82
X29.95Y-54.36
X29.95Y-56.9
X29.95Y-59.44
X45.19Y-31.5
X45.19Y-34.04
X45.19Y-36.58
X45.19Y-39.12
X45.19Y-41.66
X45.19Y-44.2
X45.19Y-46.74
X45.19Y-49.28
X45.19Y-51.82
X45.19Y-54.36
X45.19Y-56.9
X45.19Y-59.44
X55.19Y-34.5
X55.19Y-37.04
X55.19Y-39.58
X55.19Y-42.12
X55.19Y-44.66
X55.19Y-47.2
X55.19Y-49.74
X55.19Y-52.28
X70.43Y-34.5
X70.43Y-37.04
X70.43Y-39.58
X70.43Y-42.12
X70.43Y-44.66
X70.43Y-47.2
X70.43Y-49.74
X70.43Y-52.28
X79.47Y-34.5
X79.47Y-37.04
X79.47Y-39.58
X79.47Y-42.12
X79.47Y-44.66
X79.47Y-47.2
X79.47Y-49.74
X79.47Y-52.28
X94.71Y-34.5
X94.71Y-37.04
X94.71Y-39.58
X94.71Y-42.12
X94.71Y-44.66
X94.71Y-47.2
X94.71Y-49.74
X94.71Y-52.28
X104.71Y-31.5
X104.71Y-34.04
X104.71Y-36.58
X104.71Y-39.12
X104.71Y-41.66
X104.71Y-44.2
X104.71Y-46.74
X104.71Y-49.28
X104.71Y-51.82
X104.71Y-54.36
X104.71Y-56.9
X104.71Y-59.44
X119.95Y-31.5
X119.95Y-34.04
X119.95Y-36.58
X119.95Y-39.12
X119.95Y-41.66
X119.95Y-44.2
X119.95Y-46.74
X119.95Y-49.28
X119.95Y-51.82
X119.95Y-54.36
X119.95Y-56.9
X119.95Y-59.44
T6
X37.95Y-69.5
X43.03Y-69.5
M30
